<svg width="791" height="176" viewBox="0 0 791 176" fill="none" xmlns="http://www.w3.org/2000/svg">
<rect width="791" height="176" rx="22" fill="#1A2134"/>
<path d="M60.116 50.422L82.482 50.74C94.0713 50.74 102.551 50.316 107.922 49.468C108.699 50.952 109.088 52.648 109.088 54.556C109.088 56.464 108.24 58.1953 106.544 59.75C104.848 61.234 102.799 61.976 100.396 61.976L88.206 60.598C88.206 61.0927 88.0293 63.2833 87.676 67.17C86.6867 76.71 86.192 86.2853 86.192 95.896C86.192 105.507 86.934 115.117 88.418 124.728C86.086 125.576 83.648 126 81.104 126C78.56 126 76.3693 125.293 74.532 123.88C72.6947 122.396 71.776 120.205 71.776 117.308C71.776 114.34 72.1293 109.146 72.836 101.726C73.5427 94.306 73.896 87.098 73.896 80.102C73.896 73.0353 73.5427 66.4633 72.836 60.386C64.2853 60.81 57.6073 62.0113 52.802 63.99C51.954 62.3647 51.53 60.5627 51.53 58.584C51.53 56.5347 52.3427 54.662 53.968 52.966C55.5933 51.27 57.6427 50.422 60.116 50.422ZM163.97 83.176L162.91 106.496C162.91 112.715 163.935 119.004 165.984 125.364C163.794 126.212 161.568 126.636 159.306 126.636C153.158 126.636 150.084 123.385 150.084 116.884C150.084 112.079 150.508 106.425 151.356 99.924C152.204 93.4227 152.628 89.43 152.628 87.946C152.628 84.2713 150.968 82.434 147.646 82.434C144.113 82.434 140.191 85.7553 135.88 92.398C131.57 98.97 129.096 104.482 128.46 108.934C128.602 110.983 129.308 116.248 130.58 124.728C128.39 125.576 125.987 126 123.372 126C117.931 126 115.21 123.35 115.21 118.05C115.21 115.506 115.599 110.524 116.376 103.104C117.154 95.6133 117.542 89.6067 117.542 85.084C117.542 70.032 116.694 57.5947 114.998 47.772C117.26 46.924 119.592 46.5 121.994 46.5C124.397 46.5 126.376 47.3127 127.93 48.938C129.556 50.4927 130.368 52.648 130.368 55.404C130.368 58.16 129.98 63.8487 129.202 72.47C128.496 81.0913 128.142 87.8047 128.142 92.61C130.616 87.3807 134.22 82.6107 138.954 78.3C143.76 73.9187 148.53 71.728 153.264 71.728C160.402 71.728 163.97 75.544 163.97 83.176ZM186.337 101.938C186.337 107.026 187.15 111.054 188.775 114.022C190.4 116.919 193.121 118.368 196.937 118.368C200.753 118.368 203.721 117.096 205.841 114.552C208.032 111.937 209.127 108.793 209.127 105.118C211.53 105.118 213.614 105.719 215.381 106.92C217.148 108.121 218.031 109.782 218.031 111.902C218.031 116.283 215.699 119.958 211.035 122.926C206.371 125.823 201.46 127.272 196.301 127.272C188.245 127.272 182.415 125.117 178.811 120.806C175.207 116.425 173.405 109.959 173.405 101.408C173.405 92.8573 175.808 85.6847 180.613 79.89C185.489 74.0247 191.955 71.092 200.011 71.092C205.523 71.092 209.94 72.364 213.261 74.908C216.653 77.3813 218.349 81.268 218.349 86.568C218.349 91.7973 215.946 95.7547 211.141 98.44C206.406 101.055 200.612 102.362 193.757 102.362C191.354 102.362 188.881 102.221 186.337 101.938ZM186.443 93.564C188.563 93.988 190.789 94.2 193.121 94.2C198.209 94.2 202.484 93.246 205.947 91.338C206.371 89.642 206.583 88.2993 206.583 87.31C206.583 84.8367 205.7 82.964 203.933 81.692C202.166 80.42 199.728 79.784 196.619 79.784C193.58 79.784 190.824 80.7733 188.351 82.752C187.079 86.4267 186.443 90.0307 186.443 93.564ZM273.846 124.728C271.655 125.576 269.323 126 266.85 126C264.377 126 262.363 125.435 260.808 124.304C259.324 123.103 258.582 121.477 258.582 119.428C258.582 117.308 258.9 113.492 259.536 107.98C260.172 102.468 260.49 97.1327 260.49 91.974C260.49 86.7447 259.677 80.632 258.052 73.636C260.313 72.788 262.539 72.364 264.73 72.364C266.921 72.364 268.793 73.106 270.348 74.59C271.973 76.074 272.786 78.0527 272.786 80.526C272.786 81.798 272.574 83.706 272.15 86.25C271.726 88.7233 271.479 90.596 271.408 91.868C274.164 85.5787 277.415 80.6673 281.16 77.134C284.976 73.53 288.757 71.728 292.502 71.728C295.117 71.728 297.201 72.6467 298.756 74.484C300.311 76.3213 301.088 78.6533 301.088 81.48C301.088 84.236 300.381 86.4973 298.968 88.264C297.555 89.96 295.788 90.808 293.668 90.808C291.619 90.808 289.958 90.596 288.686 90.172C288.898 89.324 289.004 88.5467 289.004 87.84C289.004 84.9427 287.979 83.494 285.93 83.494C282.821 83.494 279.888 86.6387 277.132 92.928C274.447 99.1467 272.645 104.977 271.726 110.418C272.079 115.718 272.786 120.488 273.846 124.728ZM316.249 101.938C316.249 107.026 317.062 111.054 318.687 114.022C320.313 116.919 323.033 118.368 326.849 118.368C330.665 118.368 333.633 117.096 335.753 114.552C337.944 111.937 339.039 108.793 339.039 105.118C341.442 105.118 343.527 105.719 345.293 106.92C347.06 108.121 347.943 109.782 347.943 111.902C347.943 116.283 345.611 119.958 340.947 122.926C336.283 125.823 331.372 127.272 326.213 127.272C318.157 127.272 312.327 125.117 308.723 120.806C305.119 116.425 303.317 109.959 303.317 101.408C303.317 92.8573 305.72 85.6847 310.525 79.89C315.401 74.0247 321.867 71.092 329.923 71.092C335.435 71.092 339.852 72.364 343.173 74.908C346.565 77.3813 348.261 81.268 348.261 86.568C348.261 91.7973 345.859 95.7547 341.053 98.44C336.319 101.055 330.524 102.362 323.669 102.362C321.267 102.362 318.793 102.221 316.249 101.938ZM316.355 93.564C318.475 93.988 320.701 94.2 323.033 94.2C328.121 94.2 332.397 93.246 335.859 91.338C336.283 89.642 336.495 88.2993 336.495 87.31C336.495 84.8367 335.612 82.964 333.845 81.692C332.079 80.42 329.641 79.784 326.531 79.784C323.493 79.784 320.737 80.7733 318.263 82.752C316.991 86.4267 316.355 90.0307 316.355 93.564ZM399.706 109.252C397.233 114.057 394.123 118.156 390.378 121.548C386.633 124.94 382.887 126.636 379.142 126.636C375.397 126.636 372.499 125.364 370.45 122.82C368.471 120.205 367.058 116.884 366.21 112.856C365.362 108.757 364.585 104.553 363.878 100.242C363.242 95.9313 362.111 91.7267 360.486 87.628C358.861 83.5293 356.635 80.4553 353.808 78.406C354.727 76.71 356.105 75.2967 357.942 74.166C359.779 72.9647 361.758 72.364 363.878 72.364C367.199 72.364 369.885 74.5193 371.934 78.83C373.983 83.07 375.291 87.7693 375.856 92.928C376.492 98.0867 377.163 103.104 377.87 107.98C378.647 112.785 379.531 115.541 380.52 116.248C382.923 116.107 385.007 114.587 386.774 111.69C388.611 108.722 389.954 105.153 390.802 100.984C392.357 93.352 393.134 87.3807 393.134 83.07C393.134 78.7593 392.922 75.438 392.498 73.106C394.971 72.6113 397.091 72.364 398.858 72.364C404.935 72.364 407.974 75.2613 407.974 81.056C407.974 84.7307 407.197 89.1473 405.642 94.306C404.158 99.394 402.179 104.376 399.706 109.252ZM433.865 127.272C426.091 127.272 420.367 125.011 416.693 120.488C413.018 115.895 411.181 109.535 411.181 101.408C411.181 93.2107 413.619 86.1087 418.495 80.102C423.371 74.0953 429.625 71.092 437.257 71.092C452.945 71.092 460.789 79.9253 460.789 97.592C460.789 105.86 458.245 112.891 453.157 118.686C448.069 124.41 441.638 127.272 433.865 127.272ZM426.233 82.752C424.961 86.8507 424.325 90.9493 424.325 95.048C424.325 99.1467 424.466 102.327 424.749 104.588C425.031 106.849 425.561 109.111 426.339 111.372C427.964 115.965 431.144 118.262 435.879 118.262C440.684 118.262 443.829 116.99 445.313 114.446C446.867 111.902 447.645 107.98 447.645 102.68C447.645 87.628 444.076 80.102 436.939 80.102C432.84 80.102 429.271 80.9853 426.233 82.752ZM470.291 47.772C472.553 46.924 474.885 46.5 477.287 46.5C479.69 46.5 481.669 47.3127 483.223 48.938C484.849 50.4927 485.661 52.648 485.661 55.404C485.661 58.0893 485.273 63.5307 484.495 71.728C483.789 79.8547 483.435 86.25 483.435 90.914C483.435 102.433 484.248 113.704 485.873 124.728C483.612 125.576 481.209 126 478.665 126C473.224 126 470.503 123.35 470.503 118.05C470.503 115.506 470.892 110.524 471.669 103.104C472.447 95.6133 472.835 89.6067 472.835 85.084C472.835 70.032 471.987 57.5947 470.291 47.772ZM498.758 115.188L499.818 93.14C499.818 86.2853 498.829 79.784 496.85 73.636C498.829 72.788 501.267 72.364 504.164 72.364C509.817 72.364 512.644 75.5087 512.644 81.798C512.644 85.3313 512.255 90.3133 511.478 96.744C510.701 103.104 510.312 107.733 510.312 110.63C510.312 114.163 511.902 115.93 515.082 115.93C516.99 115.93 519.216 114.34 521.76 111.16C524.375 107.909 526.601 104.305 528.438 100.348C530.346 96.32 531.477 93.034 531.83 90.49C531.406 82.7167 530.805 77.0987 530.028 73.636C532.289 72.788 534.586 72.364 536.918 72.364C539.321 72.364 541.299 73.106 542.854 74.59C544.479 76.074 545.292 77.9113 545.292 80.102C545.292 82.2927 544.974 85.932 544.338 91.02C543.702 96.108 543.384 101.443 543.384 107.026C543.384 112.538 544.02 118.439 545.292 124.728C542.536 125.576 540.063 126 537.872 126C533.491 126 531.3 123.103 531.3 117.308C531.3 114.764 531.583 111.231 532.148 106.708C529.321 112.715 525.859 117.555 521.76 121.23C517.732 124.834 513.633 126.636 509.464 126.636C502.327 126.636 498.758 122.82 498.758 115.188ZM560.212 56.782C562.474 55.6513 564.77 55.086 567.102 55.086C569.434 55.086 571.307 55.828 572.72 57.312C574.204 58.796 574.946 60.9867 574.946 63.884C574.946 66.7813 574.77 70.0673 574.416 73.742C579.716 73.742 584.769 73 589.574 71.516C590.422 72.9293 590.846 74.59 590.846 76.498C590.846 78.3353 589.998 79.8547 588.302 81.056C586.677 82.1867 585.016 82.752 583.32 82.752C581.624 82.752 579.716 82.54 577.596 82.116C575.476 81.692 574.098 81.4447 573.462 81.374C573.392 82.01 573.18 83.282 572.826 85.19C572.544 87.098 572.296 88.7587 572.084 90.172C571.519 94.0587 571.236 98.228 571.236 102.68C571.236 112.361 574.381 117.202 580.67 117.202C583.002 117.202 585.688 116.389 588.726 114.764C589.645 116.107 590.104 117.838 590.104 119.958C590.104 122.078 588.938 123.739 586.606 124.94C584.345 126.071 581.624 126.636 578.444 126.636C566.007 126.636 559.788 119.569 559.788 105.436C559.788 103.387 560.071 99.6767 560.636 94.306C561.272 88.9353 561.59 84.5893 561.59 81.268C558.198 81.48 555.478 82.0807 553.428 83.07C552.58 81.798 552.156 80.3493 552.156 78.724C552.156 77.028 552.757 75.65 553.958 74.59C555.16 73.4593 556.644 72.894 558.41 72.894C560.177 72.894 561.343 72.9293 561.908 73C561.979 72.4347 562.014 71.6927 562.014 70.774C562.014 65.474 561.414 60.81 560.212 56.782ZM598.323 73.318C600.584 72.682 602.845 72.364 605.107 72.364C607.439 72.364 609.417 73.0707 611.043 74.484C612.668 75.8973 613.481 77.7347 613.481 79.996C613.481 82.1867 613.092 86.038 612.315 91.55C611.608 96.9913 611.255 101.231 611.255 104.27C611.255 112.185 611.997 119.004 613.481 124.728C611.29 125.576 608.923 126 606.379 126C603.835 126 601.821 125.435 600.337 124.304C598.853 123.103 598.111 121.407 598.111 119.216C598.111 116.955 598.535 113.28 599.383 108.192C600.231 103.104 600.655 98.8993 600.655 95.578C600.655 86.7447 599.877 79.3247 598.323 73.318ZM599.701 49.362C602.174 48.2313 604.612 47.666 607.015 47.666C609.417 47.666 611.184 48.302 612.315 49.574C613.516 50.7753 614.117 52.5773 614.117 54.98C614.117 57.3827 613.304 59.5027 611.679 61.34C610.124 63.1773 608.075 64.096 605.531 64.096C600.301 64.096 597.687 61.3753 597.687 55.934C597.687 53.5313 598.358 51.3407 599.701 49.362ZM644.208 127.272C636.435 127.272 630.711 125.011 627.036 120.488C623.362 115.895 621.524 109.535 621.524 101.408C621.524 93.2107 623.962 86.1087 628.838 80.102C633.714 74.0953 639.968 71.092 647.6 71.092C663.288 71.092 671.132 79.9253 671.132 97.592C671.132 105.86 668.588 112.891 663.5 118.686C658.412 124.41 651.982 127.272 644.208 127.272ZM636.576 82.752C635.304 86.8507 634.668 90.9493 634.668 95.048C634.668 99.1467 634.81 102.327 635.092 104.588C635.375 106.849 635.905 109.111 636.682 111.372C638.308 115.965 641.488 118.262 646.222 118.262C651.028 118.262 654.172 116.99 655.656 114.446C657.211 111.902 657.988 107.98 657.988 102.68C657.988 87.628 654.42 80.102 647.282 80.102C643.184 80.102 639.615 80.9853 636.576 82.752ZM728.865 83.176L727.805 106.496C727.805 112.927 728.794 119.216 730.773 125.364C728.794 126.212 726.533 126.636 723.989 126.636C717.982 126.636 714.979 123.279 714.979 116.566C714.979 113.527 715.368 108.439 716.145 101.302C716.922 94.094 717.311 89.5713 717.311 87.734C717.311 84.2007 715.721 82.434 712.541 82.434C710.209 82.434 707.559 84.13 704.591 87.522C701.694 90.8433 699.185 94.5887 697.065 98.758C695.016 102.857 693.814 106.249 693.461 108.934C693.744 114.446 694.45 119.711 695.581 124.728C693.32 125.576 690.952 126 688.479 126C686.076 126 684.098 125.435 682.543 124.304C681.059 123.103 680.317 121.477 680.317 119.428C680.317 117.308 680.635 113.563 681.271 108.192C681.907 102.751 682.225 97.38 682.225 92.08C682.225 86.7093 681.412 80.5613 679.787 73.636C682.048 72.788 684.451 72.364 686.995 72.364C689.539 72.364 691.588 73.106 693.143 74.59C694.768 76.074 695.581 77.9113 695.581 80.102C695.581 82.2927 695.298 85.7907 694.733 90.596C697.418 85.5787 700.916 81.1973 705.227 77.452C709.538 73.636 713.848 71.728 718.159 71.728C725.296 71.728 728.865 75.544 728.865 83.176Z" fill="#E5E5E5"/>
</svg>
