<svg width="406" height="139" viewBox="0 0 406 139" fill="none" xmlns="http://www.w3.org/2000/svg">
<path d="M0.723001 6.046C11.4003 2.42333 22.459 0.611997 33.899 0.611997C45.339 0.611997 54.8247 3.043 62.356 7.905C69.8873 12.767 73.653 20.203 73.653 30.213C73.653 40.223 70.1257 48.66 63.071 55.524C56.0163 62.2927 47.5317 65.677 37.617 65.677C30.3717 65.677 26.749 62.9123 26.749 57.383C26.749 55.667 27.0827 53.8557 27.75 51.949C30.324 52.6163 32.6597 52.95 34.757 52.95C41.335 52.95 46.2923 51.1387 49.629 47.516C53.061 43.8933 54.777 38.8883 54.777 32.501C54.777 26.0183 52.9657 21.204 49.343 18.058C45.7203 14.912 40.6677 13.339 34.185 13.339C30.8483 13.339 26.7967 13.911 22.03 15.055C21.2673 26.781 20.886 37.1723 20.886 46.229C20.886 71.5877 21.887 89.9393 23.889 101.284C20.8383 102.428 17.597 103 14.165 103C10.733 103 7.73 101.904 5.156 99.711C2.67733 97.5183 1.438 94.6107 1.438 90.988C1.438 87.3653 1.91467 81.0733 2.868 72.112C3.82133 63.0553 4.298 55.81 4.298 50.376C4.298 33.788 3.10633 19.0113 0.723001 6.046ZM102.129 104.716C91.6423 104.716 83.9203 101.665 78.963 95.564C74.0057 89.3673 71.527 80.7873 71.527 69.824C71.527 58.7653 74.816 49.1843 81.394 41.081C87.972 32.9777 96.409 28.926 106.705 28.926C127.869 28.926 138.451 40.8427 138.451 64.676C138.451 75.83 135.019 85.3157 128.155 93.133C121.291 100.855 112.616 104.716 102.129 104.716ZM91.833 44.656C90.117 50.1853 89.259 55.7147 89.259 61.244C89.259 66.7733 89.4497 71.0633 89.831 74.114C90.2123 77.1647 90.9273 80.2153 91.976 83.266C94.1687 89.4627 98.4587 92.561 104.846 92.561C111.329 92.561 115.571 90.845 117.573 87.413C119.67 83.981 120.719 78.69 120.719 71.54C120.719 51.234 115.905 41.081 106.276 41.081C100.747 41.081 95.9323 42.2727 91.833 44.656ZM162.568 70.539C162.568 77.403 163.664 82.837 165.857 86.841C168.049 90.7497 171.72 92.704 176.868 92.704C182.016 92.704 186.02 90.988 188.88 87.556C191.835 84.0287 193.313 79.7863 193.313 74.829C196.554 74.829 199.366 75.6393 201.75 77.26C204.133 78.8807 205.325 81.121 205.325 83.981C205.325 89.8917 202.179 94.849 195.887 98.853C189.595 102.762 182.969 104.716 176.01 104.716C165.142 104.716 157.277 101.808 152.415 95.993C147.553 90.0823 145.122 81.3593 145.122 69.824C145.122 58.2887 148.363 48.6123 154.846 40.795C161.424 32.8823 170.147 28.926 181.015 28.926C188.451 28.926 194.409 30.642 198.89 34.074C203.466 37.4107 205.754 42.654 205.754 49.804C205.754 56.8587 202.512 62.1973 196.03 65.82C189.642 69.3473 181.825 71.111 172.578 71.111C169.336 71.111 166 70.9203 162.568 70.539ZM162.711 59.242C165.571 59.814 168.574 60.1 171.72 60.1C178.584 60.1 184.351 58.813 189.023 56.239C189.595 53.951 189.881 52.1397 189.881 50.805C189.881 47.4683 188.689 44.942 186.306 43.226C183.922 41.51 180.633 40.652 176.439 40.652C172.339 40.652 168.621 41.9867 165.285 44.656C163.569 49.6133 162.711 54.4753 162.711 59.242ZM224.82 9.62099C227.87 8.09566 230.969 7.333 234.115 7.333C237.261 7.333 239.787 8.334 241.694 10.336C243.696 12.338 244.697 15.2933 244.697 19.202C244.697 23.1107 244.458 27.5437 243.982 32.501C251.132 32.501 257.948 31.5 264.431 29.498C265.575 31.4047 266.147 33.645 266.147 36.219C266.147 38.6977 265.003 40.7473 262.715 42.368C260.522 43.8933 258.282 44.656 255.994 44.656C253.706 44.656 251.132 44.37 248.272 43.798C245.412 43.226 243.553 42.8923 242.695 42.797C242.599 43.655 242.313 45.371 241.837 47.945C241.455 50.519 241.122 52.7593 240.836 54.666C240.073 59.9093 239.692 65.534 239.692 71.54C239.692 84.6007 243.934 91.131 252.419 91.131C255.565 91.131 259.187 90.0347 263.287 87.842C264.526 89.6533 265.146 91.989 265.146 94.849C265.146 97.709 263.573 99.9493 260.427 101.57C257.376 103.095 253.706 103.858 249.416 103.858C232.637 103.858 224.248 94.3247 224.248 75.258C224.248 72.4933 224.629 67.4883 225.392 60.243C226.25 52.9977 226.679 47.1347 226.679 42.654C222.103 42.94 218.432 43.7503 215.668 45.085C214.524 43.369 213.952 41.4147 213.952 39.222C213.952 36.934 214.762 35.075 216.383 33.645C218.003 32.1197 220.005 31.357 222.389 31.357C224.772 31.357 226.345 31.4047 227.108 31.5C227.203 30.7373 227.251 29.7363 227.251 28.497C227.251 21.347 226.44 15.055 224.82 9.62099ZM296.682 101.284C293.726 102.428 290.58 103 287.244 103C283.907 103 281.19 102.237 279.093 100.712C277.091 99.0913 276.09 96.8987 276.09 94.134C276.09 91.274 276.519 86.126 277.377 78.69C278.235 71.254 278.664 64.0563 278.664 57.097C278.664 50.0423 277.567 41.796 275.375 32.358C278.425 31.214 281.428 30.642 284.384 30.642C287.339 30.642 289.865 31.643 291.963 33.645C294.155 35.647 295.252 38.3163 295.252 41.653C295.252 43.369 294.966 45.943 294.394 49.375C293.822 52.7117 293.488 55.238 293.393 56.954C297.111 48.4693 301.496 41.8437 306.549 37.077C311.697 32.215 316.797 29.784 321.85 29.784C325.377 29.784 328.189 31.0233 330.287 33.502C332.384 35.9807 333.433 39.1267 333.433 42.94C333.433 46.658 332.479 49.7087 330.573 52.092C328.666 54.38 326.283 55.524 323.423 55.524C320.658 55.524 318.418 55.238 316.702 54.666C316.988 53.522 317.131 52.4733 317.131 51.52C317.131 47.6113 315.748 45.657 312.984 45.657C308.789 45.657 304.833 49.8993 301.115 58.384C297.492 66.7733 295.061 74.6383 293.822 81.979C294.298 89.129 295.252 95.564 296.682 101.284ZM342.589 79.262L344.019 58.67C344.019 49.4227 342.684 40.652 340.015 32.358C342.684 31.214 345.973 30.642 349.882 30.642C357.509 30.642 361.322 34.8843 361.322 43.369C361.322 47.1823 360.798 52.5687 359.749 59.528C358.7 66.4873 358.176 71.3017 358.176 73.971C358.176 76.545 358.224 78.4517 358.319 79.691C358.414 80.835 358.653 82.2173 359.034 83.838C359.606 87.0793 361.465 88.7 364.611 88.7C367.852 88.7 371.284 86.1737 374.907 81.121C378.625 75.973 381.58 70.3007 383.773 64.104C386.061 57.9073 387.205 52.9977 387.205 49.375C386.728 41.8437 385.918 36.1713 384.774 32.358C387.825 31.214 390.923 30.642 394.069 30.642C397.31 30.642 399.98 31.643 402.077 33.645C404.27 35.647 405.366 38.3163 405.366 41.653C405.366 93.705 395.833 124.927 376.766 135.318C372.476 137.606 367.614 138.75 362.18 138.75C356.746 138.75 351.979 137.32 347.88 134.46C343.876 131.6 341.874 127.596 341.874 122.448C341.874 119.016 343.161 116.108 345.735 113.725C348.309 111.437 351.36 110.293 354.887 110.293C355.65 110.293 356.603 110.388 357.747 110.579C357.461 111.818 357.318 112.915 357.318 113.868C357.318 122.257 360.226 126.452 366.041 126.452C369.568 126.452 372.762 124.545 375.622 120.732C378.482 116.919 380.77 112.247 382.486 106.718C385.823 95.4687 387.491 85.268 387.491 76.116C384.631 83.838 380.722 90.0823 375.765 94.849C370.903 99.5203 365.612 101.856 359.892 101.856C348.357 101.856 342.589 94.3247 342.589 79.262Z" fill="#E5E5E5"/>
</svg>
